<svg width="749" height="190" viewBox="0 0 749 190" fill="none" xmlns="http://www.w3.org/2000/svg">
<path d="M7.68 153V49.32H30.592V137.512H54.4V153H7.68ZM87.47 154.28C82.094 154.28 77.486 153.341 73.646 151.464C69.806 149.501 66.862 146.685 64.814 143.016C62.766 139.261 61.742 134.781 61.742 129.576V102.44C61.742 97.1493 62.766 92.6693 64.814 89C66.862 85.3307 69.806 82.5573 73.646 80.68C77.5713 78.7173 82.1793 77.736 87.47 77.736C92.9313 77.736 97.454 78.6747 101.038 80.552C104.707 82.4293 107.438 85.2027 109.23 88.872C111.107 92.5413 112.046 97.064 112.046 102.44V117.288H82.35V131.496C82.35 133.373 82.5633 134.909 82.99 136.104C83.4167 137.299 84.014 138.152 84.782 138.664C85.55 139.176 86.446 139.432 87.47 139.432C88.494 139.432 89.39 139.219 90.158 138.792C91.0113 138.28 91.6513 137.512 92.078 136.488C92.59 135.464 92.846 134.056 92.846 132.264V124.456H112.046V131.624C112.046 139.133 109.87 144.808 105.518 148.648C101.166 152.403 95.15 154.28 87.47 154.28ZM82.35 107.56H92.846V100.136C92.846 98.1733 92.59 96.6373 92.078 95.528C91.6513 94.4187 91.0113 93.6507 90.158 93.224C89.39 92.7973 88.4513 92.584 87.342 92.584C86.318 92.584 85.422 92.84 84.654 93.352C83.9713 93.864 83.4167 94.76 82.99 96.04C82.5633 97.2347 82.35 98.984 82.35 101.288V107.56ZM117.158 153L132.902 112.424L117.926 79.016H138.918L146.854 96.808L153.894 79.016H169.894L155.302 115.496L172.07 153H150.822L141.862 132.648L134.438 153H117.158ZM179.031 153V79.016H199.895V153H179.031ZM178.903 66.472V52.008H199.895V66.472H178.903ZM236.842 154.28C231.466 154.28 226.858 153.299 223.018 151.336C219.263 149.373 216.362 146.557 214.314 142.888C212.266 139.219 211.242 134.781 211.242 129.576V102.44C211.242 97.1493 212.266 92.6693 214.314 89C216.362 85.3307 219.263 82.5573 223.018 80.68C226.858 78.7173 231.466 77.736 236.842 77.736C242.133 77.736 246.613 78.5467 250.282 80.168C254.037 81.7893 256.895 84.264 258.858 87.592C260.821 90.8347 261.802 94.9733 261.802 100.008V107.816H241.706V99.368C241.706 97.4053 241.493 95.912 241.066 94.888C240.725 93.7787 240.17 93.0107 239.402 92.584C238.719 92.1573 237.866 91.944 236.842 91.944C235.818 91.944 234.965 92.2427 234.282 92.84C233.599 93.352 233.087 94.248 232.746 95.528C232.405 96.7227 232.234 98.4293 232.234 100.648V131.368C232.234 134.696 232.618 136.957 233.386 138.152C234.239 139.347 235.434 139.944 236.97 139.944C238.079 139.944 238.975 139.731 239.658 139.304C240.341 138.792 240.853 138.024 241.194 137C241.535 135.891 241.706 134.44 241.706 132.648V122.792H261.802V131.752C261.802 136.701 260.778 140.883 258.73 144.296C256.767 147.624 253.909 150.141 250.154 151.848C246.485 153.469 242.047 154.28 236.842 154.28ZM287.885 154.28C284.13 154.28 280.973 153.384 278.413 151.592C275.853 149.8 273.933 147.539 272.653 144.808C271.373 141.992 270.733 139.133 270.733 136.232C270.733 131.624 271.629 127.741 273.421 124.584C275.298 121.427 277.73 118.781 280.717 116.648C283.704 114.515 286.989 112.723 290.573 111.272C294.157 109.736 297.698 108.371 301.197 107.176V99.752C301.197 98.472 301.069 97.3627 300.813 96.424C300.557 95.4 300.13 94.632 299.533 94.12C298.936 93.5227 298.04 93.224 296.845 93.224C295.65 93.224 294.712 93.48 294.029 93.992C293.432 94.504 293.005 95.2293 292.749 96.168C292.493 97.0213 292.322 98.0027 292.237 99.112L291.725 104.488L272.269 103.72C272.696 94.8453 275.042 88.3173 279.309 84.136C283.661 79.8693 290.146 77.736 298.765 77.736C306.274 77.736 311.864 79.8267 315.533 84.008C319.288 88.104 321.165 93.4373 321.165 100.008V134.568C321.165 137.64 321.208 140.328 321.293 142.632C321.464 144.936 321.634 146.941 321.805 148.648C322.061 150.355 322.274 151.805 322.445 153H303.757C303.501 151.037 303.202 148.904 302.861 146.6C302.52 144.296 302.264 142.931 302.093 142.504C301.24 145.576 299.618 148.307 297.229 150.696C294.925 153.085 291.81 154.28 287.885 154.28ZM295.309 140.2C296.162 140.2 296.93 140.029 297.613 139.688C298.381 139.347 299.064 138.877 299.661 138.28C300.258 137.683 300.77 137.085 301.197 136.488V116.264C299.49 117.288 297.912 118.355 296.461 119.464C295.01 120.488 293.773 121.64 292.749 122.92C291.725 124.2 290.914 125.608 290.317 127.144C289.805 128.595 289.549 130.259 289.549 132.136C289.549 134.611 290.061 136.573 291.085 138.024C292.109 139.475 293.517 140.2 295.309 140.2ZM333.528 153V79.016H354.392V86.44C357.123 83.7093 359.939 81.576 362.84 80.04C365.827 78.504 368.941 77.736 372.184 77.736C375.256 77.736 377.773 78.504 379.736 80.04C381.784 81.4907 383.32 83.5387 384.344 86.184C385.368 88.744 385.88 91.688 385.88 95.016V153H365.144V97.96C365.144 96.168 364.845 94.8027 364.248 93.864C363.651 92.9253 362.541 92.456 360.92 92.456C360.067 92.456 359.043 92.712 357.848 93.224C356.739 93.6507 355.587 94.2907 354.392 95.144V153H333.528ZM413.635 154.28C409.88 154.28 406.723 153.384 404.163 151.592C401.603 149.8 399.683 147.539 398.403 144.808C397.123 141.992 396.483 139.133 396.483 136.232C396.483 131.624 397.379 127.741 399.171 124.584C401.048 121.427 403.48 118.781 406.467 116.648C409.454 114.515 412.739 112.723 416.323 111.272C419.907 109.736 423.448 108.371 426.947 107.176V99.752C426.947 98.472 426.819 97.3627 426.563 96.424C426.307 95.4 425.88 94.632 425.283 94.12C424.686 93.5227 423.79 93.224 422.595 93.224C421.4 93.224 420.462 93.48 419.779 93.992C419.182 94.504 418.755 95.2293 418.499 96.168C418.243 97.0213 418.072 98.0027 417.987 99.112L417.475 104.488L398.019 103.72C398.446 94.8453 400.792 88.3173 405.059 84.136C409.411 79.8693 415.896 77.736 424.515 77.736C432.024 77.736 437.614 79.8267 441.283 84.008C445.038 88.104 446.915 93.4373 446.915 100.008V134.568C446.915 137.64 446.958 140.328 447.043 142.632C447.214 144.936 447.384 146.941 447.555 148.648C447.811 150.355 448.024 151.805 448.195 153H429.507C429.251 151.037 428.952 148.904 428.611 146.6C428.27 144.296 428.014 142.931 427.843 142.504C426.99 145.576 425.368 148.307 422.979 150.696C420.675 153.085 417.56 154.28 413.635 154.28ZM421.059 140.2C421.912 140.2 422.68 140.029 423.363 139.688C424.131 139.347 424.814 138.877 425.411 138.28C426.008 137.683 426.52 137.085 426.947 136.488V116.264C425.24 117.288 423.662 118.355 422.211 119.464C420.76 120.488 419.523 121.64 418.499 122.92C417.475 124.2 416.664 125.608 416.067 127.144C415.555 128.595 415.299 130.259 415.299 132.136C415.299 134.611 415.811 136.573 416.835 138.024C417.859 139.475 419.267 140.2 421.059 140.2ZM460.174 153V49.32H480.91V153H460.174ZM496.451 174.504V160.04C499.096 160.04 501.272 159.869 502.979 159.528C504.771 159.187 506.094 158.547 506.947 157.608C507.886 156.669 508.355 155.389 508.355 153.768C508.355 152.317 508.099 150.568 507.587 148.52C507.075 146.387 506.435 143.997 505.667 141.352L488.259 79.016H507.843L517.187 121.768L524.227 79.016H543.939L526.915 154.792C525.806 159.912 524.056 163.88 521.667 166.696C519.278 169.597 516.334 171.603 512.835 172.712C509.422 173.907 505.539 174.504 501.187 174.504H496.451ZM574.69 153.768C569.143 153.768 564.834 152.957 561.762 151.336C558.775 149.715 556.727 147.368 555.618 144.296C554.509 141.139 553.954 137.341 553.954 132.904V92.712H546.786V79.016H553.954V56.488H575.074V79.016H585.57V92.712H575.074V130.856C575.074 132.989 575.671 134.525 576.866 135.464C578.146 136.403 579.725 136.872 581.602 136.872C582.711 136.872 583.735 136.829 584.674 136.744C585.613 136.573 586.466 136.445 587.234 136.36V152.744C586.125 152.915 584.375 153.128 581.986 153.384C579.597 153.64 577.165 153.768 574.69 153.768ZM597.156 153V79.016H618.02V153H597.156ZM597.028 66.472V52.008H618.02V66.472H597.028ZM654.967 154.28C649.591 154.28 644.983 153.299 641.143 151.336C637.388 149.373 634.487 146.557 632.439 142.888C630.391 139.219 629.367 134.781 629.367 129.576V102.44C629.367 97.1493 630.391 92.6693 632.439 89C634.487 85.3307 637.388 82.5573 641.143 80.68C644.983 78.7173 649.591 77.736 654.967 77.736C660.258 77.736 664.738 78.5467 668.407 80.168C672.162 81.7893 675.02 84.264 676.983 87.592C678.946 90.8347 679.927 94.9733 679.927 100.008V107.816H659.831V99.368C659.831 97.4053 659.618 95.912 659.191 94.888C658.85 93.7787 658.295 93.0107 657.527 92.584C656.844 92.1573 655.991 91.944 654.967 91.944C653.943 91.944 653.09 92.2427 652.407 92.84C651.724 93.352 651.212 94.248 650.871 95.528C650.53 96.7227 650.359 98.4293 650.359 100.648V131.368C650.359 134.696 650.743 136.957 651.511 138.152C652.364 139.347 653.559 139.944 655.095 139.944C656.204 139.944 657.1 139.731 657.783 139.304C658.466 138.792 658.978 138.024 659.319 137C659.66 135.891 659.831 134.44 659.831 132.648V122.792H679.927V131.752C679.927 136.701 678.903 140.883 676.855 144.296C674.892 147.624 672.034 150.141 668.279 151.848C664.61 153.469 660.172 154.28 654.967 154.28ZM713.562 154.28C707.077 154.28 701.658 152.829 697.306 149.928C693.039 147.027 689.541 142.291 686.81 135.72L701.018 129.448C702.383 132.776 703.962 135.421 705.754 137.384C707.631 139.261 709.679 140.2 711.898 140.2C713.519 140.2 714.714 139.859 715.482 139.176C716.335 138.493 716.762 137.555 716.762 136.36C716.762 134.397 715.994 132.605 714.458 130.984C713.007 129.363 710.362 126.973 706.522 123.816L701.146 119.336C697.221 116.008 694.106 112.808 691.802 109.736C689.583 106.579 688.474 102.696 688.474 98.088C688.474 94.0773 689.498 90.536 691.546 87.464C693.679 84.392 696.495 82.0027 699.994 80.296C703.493 78.5893 707.247 77.736 711.258 77.736C717.317 77.736 722.394 79.4 726.49 82.728C730.586 86.056 733.445 90.7493 735.066 96.808L721.626 102.952C721.114 101.331 720.389 99.7093 719.45 98.088C718.511 96.4667 717.359 95.1013 715.994 93.992C714.714 92.8827 713.306 92.328 711.77 92.328C710.405 92.328 709.295 92.712 708.442 93.48C707.674 94.248 707.29 95.272 707.29 96.552C707.29 98.1733 708.186 99.9227 709.978 101.8C711.855 103.677 714.415 105.939 717.658 108.584L722.906 113.192C725.039 114.984 727.13 116.904 729.178 118.952C731.226 121 732.89 123.261 734.17 125.736C735.535 128.211 736.218 131.027 736.218 134.184C736.218 138.451 735.151 142.12 733.018 145.192C730.885 148.179 728.069 150.44 724.57 151.976C721.157 153.512 717.487 154.28 713.562 154.28Z" fill="white"/>
<path d="M673.24 184L667.032 166.784H671.736L676.888 181.6H674.648L680.024 166.784H684.248L689.464 181.6H687.224L692.536 166.784H696.952L690.712 184H685.88L681.304 171.296H682.776L678.04 184H673.24ZM707.348 184.256C705.385 184.256 703.657 183.872 702.164 183.104C700.692 182.336 699.551 181.291 698.74 179.968C697.929 178.624 697.524 177.099 697.524 175.392C697.524 173.664 697.919 172.139 698.708 170.816C699.519 169.472 700.617 168.427 702.004 167.68C703.391 166.912 704.959 166.528 706.708 166.528C708.393 166.528 709.908 166.891 711.252 167.616C712.617 168.32 713.695 169.344 714.484 170.688C715.273 172.011 715.668 173.6 715.668 175.456C715.668 175.648 715.657 175.872 715.636 176.128C715.615 176.363 715.593 176.587 715.572 176.8H701.588V173.888H712.948L711.028 174.752C711.028 173.856 710.847 173.077 710.484 172.416C710.121 171.755 709.62 171.243 708.98 170.88C708.34 170.496 707.593 170.304 706.74 170.304C705.887 170.304 705.129 170.496 704.468 170.88C703.828 171.243 703.327 171.765 702.964 172.448C702.601 173.109 702.42 173.899 702.42 174.816V175.584C702.42 176.523 702.623 177.355 703.028 178.08C703.455 178.784 704.041 179.328 704.788 179.712C705.556 180.075 706.452 180.256 707.476 180.256C708.393 180.256 709.193 180.117 709.876 179.84C710.58 179.563 711.22 179.147 711.796 178.592L714.452 181.472C713.663 182.368 712.671 183.061 711.476 183.552C710.281 184.021 708.905 184.256 707.348 184.256ZM729.168 184.256C727.653 184.256 726.352 183.936 725.264 183.296C724.176 182.656 723.344 181.685 722.768 180.384C722.192 179.061 721.904 177.397 721.904 175.392C721.904 173.365 722.202 171.701 722.8 170.4C723.418 169.099 724.272 168.128 725.36 167.488C726.448 166.848 727.717 166.528 729.168 166.528C730.789 166.528 732.24 166.891 733.52 167.616C734.821 168.341 735.845 169.365 736.592 170.688C737.36 172.011 737.744 173.579 737.744 175.392C737.744 177.184 737.36 178.741 736.592 180.064C735.845 181.387 734.821 182.421 733.52 183.168C732.24 183.893 730.789 184.256 729.168 184.256ZM718.992 184V160.256H723.984V170.272L723.664 175.36L723.76 180.48V184H718.992ZM728.304 180.16C729.136 180.16 729.872 179.968 730.512 179.584C731.173 179.2 731.696 178.656 732.08 177.952C732.485 177.227 732.688 176.373 732.688 175.392C732.688 174.389 732.485 173.536 732.08 172.832C731.696 172.128 731.173 171.584 730.512 171.2C729.872 170.816 729.136 170.624 728.304 170.624C727.472 170.624 726.725 170.816 726.064 171.2C725.402 171.584 724.88 172.128 724.496 172.832C724.112 173.536 723.92 174.389 723.92 175.392C723.92 176.373 724.112 177.227 724.496 177.952C724.88 178.656 725.402 179.2 726.064 179.584C726.725 179.968 727.472 180.16 728.304 180.16Z" fill="white"/>
</svg>
